<?xml version="1.0" encoding="utf-8"?>
<!-- Generator: Adobe Illustrator 19.1.0, SVG Export Plug-In . SVG Version: 6.00 Build 0)  -->
<svg version="1.1" id="Layer_1" xmlns="http://www.w3.org/2000/svg" xmlns:xlink="http://www.w3.org/1999/xlink" x="0px" y="0px" width="140px" height="32px" 
	 viewBox="-210 50 140 32" enable-background="new -210 50 140 32" xml:space="preserve">
<g>
	<path fill="#FFFFFF" d="M-196.9,53.2c1.4,1.3,2.1,3,2.1,5.3c0,2.3-0.7,4-2.1,5.3c-1.4,1.3-3.5,2-6.3,2h-5.1V51.3h5.2
		C-200.3,51.3-198.3,52-196.9,53.2z M-199.3,61.9c0.8-0.7,1.2-1.8,1.2-3.2c0-1.4-0.4-2.5-1.2-3.3c-0.8-0.8-2.1-1.2-3.7-1.2h-1.8V63
		h2.1C-201.3,63-200.1,62.6-199.3,61.9z"/>
	<path fill="#FFFFFF" d="M-182.3,64.2c-1.3,1.2-2.8,1.8-4.5,1.8c-1.7,0-3.2-0.5-4.3-1.6c-1.1-1-1.7-2.5-1.7-4.2
		c0-1.8,0.6-3.1,1.7-4.2c1.2-1,2.5-1.6,4.1-1.6c1.6,0,2.9,0.5,4,1.4c1.1,0.9,1.6,2.2,1.6,3.8v1.7h-8.3c0.1,0.6,0.4,1.1,1,1.5
		c0.6,0.4,1.2,0.6,1.9,0.6c1.1,0,2-0.4,2.8-1.1L-182.3,64.2z M-185.4,57.6c-0.4-0.4-1-0.5-1.6-0.5c-0.6,0-1.2,0.2-1.7,0.6
		c-0.5,0.4-0.8,0.9-0.9,1.5h5C-184.7,58.5-184.9,58-185.4,57.6z"/>
	<path fill="#FFFFFF" d="M-175.9,65.8h-3.2V50.4h3.2V65.8z"/>
	<path fill="#FFFFFF" d="M-172.7,53.3c-0.4-0.4-0.5-0.8-0.5-1.3c0-0.5,0.2-0.9,0.5-1.3c0.4-0.4,0.8-0.5,1.3-0.5c0.5,0,1,0.2,1.3,0.5
		c0.4,0.4,0.5,0.8,0.5,1.3c0,0.5-0.2,0.9-0.5,1.3c-0.4,0.4-0.8,0.5-1.3,0.5C-171.8,53.8-172.3,53.6-172.7,53.3z M-169.7,65.8h-3.2
		V54.7h3.2V65.8z"/>
	<path fill="#FFFFFF" d="M-163.7,65.8l-4.5-11.2h3.3l2.8,7l2.8-7h3.3l-4.5,11.2H-163.7z"/>
	<path fill="#FFFFFF" d="M-144.4,64.2c-1.3,1.2-2.8,1.8-4.5,1.8c-1.7,0-3.2-0.5-4.3-1.6c-1.1-1-1.7-2.5-1.7-4.2
		c0-1.8,0.6-3.1,1.7-4.2c1.2-1,2.5-1.6,4.1-1.6c1.6,0,2.9,0.5,4,1.4c1.1,0.9,1.6,2.2,1.6,3.8v1.7h-8.3c0.1,0.6,0.4,1.1,1,1.5
		c0.6,0.4,1.2,0.6,1.9,0.6c1.1,0,2-0.4,2.8-1.1L-144.4,64.2z M-147.5,57.6c-0.4-0.4-1-0.5-1.6-0.5c-0.6,0-1.2,0.2-1.7,0.6
		c-0.5,0.4-0.8,0.9-0.9,1.5h5C-146.8,58.5-147,58-147.5,57.6z"/>
	<path fill="#FFFFFF" d="M-135.2,57.4c-0.9,0-1.7,0.3-2.1,1c-0.5,0.7-0.7,1.5-0.7,2.6v4.8h-3.2V54.7h3.2v1.5
		c0.4-0.5,0.9-0.8,1.5-1.2s1.2-0.5,1.9-0.5l0,2.9C-134.6,57.4-135.2,57.4-135.2,57.4z"/>
	<path fill="#FFFFFF" d="M-130.5,70.2c-1.1,0-2.2-0.4-3.1-1.3l1.4-2.3c0.5,0.5,1.1,0.8,1.7,0.8c0.3,0,0.6-0.2,0.8-0.4
		c0.2-0.3,0.3-0.6,0.3-0.9s-1.5-4.1-4.4-11.4h3.4l2.8,7l2.8-7h3.4l-5.3,13.2c-0.3,0.8-0.8,1.4-1.5,1.8
		C-129,70-129.7,70.2-130.5,70.2z"/>
	<path fill="#FFFFFF" d="M-204.3,78.2c0.6,0.7,1.3,1,2.2,1s1.7-0.3,2.2-1c0.5-0.7,0.8-1.6,0.8-2.8v-8h3.3v8.1c0,2.1-0.6,3.7-1.8,4.8
		c-1.2,1.1-2.7,1.7-4.6,1.7s-3.4-0.6-4.6-1.7c-1.2-1.1-1.8-2.7-1.8-4.8v-8.1h3.3v8C-205.1,76.6-204.8,77.5-204.3,78.2z"/>
	<path fill="#FFFFFF" d="M-189.6,75.7V82h-3.2V70.8h3.2V72c1-0.9,2-1.4,3.2-1.4c1.2,0,2.2,0.4,3,1.3c0.8,0.8,1.2,1.9,1.2,3.3V82
		h-3.2v-6.3c0-1.7-0.6-2.6-1.9-2.6c-0.6,0-1.2,0.2-1.7,0.7C-189.3,74.2-189.6,74.9-189.6,75.7z"/>
	<path fill="#FFFFFF" d="M-179,69.4c-0.4-0.4-0.5-0.8-0.5-1.3s0.2-0.9,0.5-1.3c0.4-0.4,0.8-0.5,1.3-0.5c0.5,0,1,0.2,1.3,0.5
		c0.4,0.4,0.5,0.8,0.5,1.3s-0.2,0.9-0.5,1.3c-0.4,0.4-0.8,0.5-1.3,0.5C-178.1,69.9-178.6,69.7-179,69.4z M-176,82h-3.2V70.8h3.2V82z
		"/>
	<path fill="#FFFFFF" d="M-169.2,73v5c0,0.4,0.1,0.8,0.3,1c0.2,0.2,0.5,0.4,0.8,0.4c0.6,0,1.1-0.3,1.5-0.8l1.2,2.2
		c-1,0.9-2,1.3-3.1,1.3c-1.1,0-2-0.4-2.8-1c-0.8-0.7-1.1-1.7-1.1-2.9V73h-1.3v-2.3h1.3v-3.3h3.2v3.4h2.8v2.3L-169.2,73L-169.2,73z"
		/>
</g>
</svg>
